<svg width="520" height="228" viewBox="0 0 520 228" fill="none" xmlns="http://www.w3.org/2000/svg">
<circle opacity="0.4" cx="260" cy="114" r="81.5" fill="#0E0F0C" fill-opacity="0.19" stroke="#B6F72B"/>
<circle opacity="0.3" cx="260" cy="114" r="97.5" fill="#0E0F0C" fill-opacity="0.1" stroke="#B6F72B"/>
<circle opacity="0.2" cx="260" cy="114" r="113.5" fill="#0E0F0C" fill-opacity="0.05" stroke="#B6F72B"/>
<circle cx="260" cy="114" r="48" fill="url(#paint0_linear_102_2)"/>
<path d="M243.799 123.5C244.094 123.209 244.491 123.046 244.906 123.046H283.216C283.371 123.044 283.522 123.088 283.651 123.173C283.78 123.258 283.881 123.38 283.941 123.522C284 123.665 284.015 123.822 283.985 123.973C283.954 124.125 283.878 124.263 283.768 124.372L276.2 131.879C275.906 132.17 275.508 132.334 275.093 132.335H236.783C236.628 132.336 236.477 132.291 236.348 132.206C236.219 132.121 236.119 131.999 236.059 131.856C236 131.714 235.985 131.557 236.015 131.405C236.046 131.254 236.121 131.115 236.231 131.007L243.799 123.5ZM243.799 95.4533C244.094 95.1625 244.491 94.9996 244.906 95H283.216C283.912 95 284.262 95.8374 283.768 96.328L276.2 103.835C275.905 104.126 275.507 104.289 275.093 104.288H236.783C236.629 104.289 236.478 104.244 236.35 104.159C236.222 104.074 236.122 103.953 236.062 103.811C236.003 103.669 235.988 103.512 236.018 103.361C236.048 103.21 236.122 103.072 236.231 102.963L243.799 95.4533ZM276.2 109.387C275.905 109.096 275.507 108.933 275.093 108.934H236.783C236.628 108.932 236.477 108.977 236.348 109.062C236.219 109.148 236.119 109.269 236.059 109.412C236 109.555 235.985 109.712 236.015 109.863C236.046 110.014 236.121 110.153 236.231 110.262L243.799 117.769C244.092 118.059 244.492 118.222 244.906 118.222H283.216C283.371 118.223 283.522 118.179 283.651 118.093C283.78 118.008 283.88 117.887 283.939 117.744C283.999 117.601 284.014 117.444 283.984 117.293C283.953 117.141 283.878 117.003 283.768 116.894L276.2 109.387Z" fill="#0E0F0C"/>
<circle cx="356" cy="114" r="35.5" fill="#0E0F0C" stroke="url(#paint1_linear_102_2)"/>
<g clip-path="url(#clip0_102_2)">
<path d="M359.961 110.379C359.961 112.365 358.353 113.974 356.369 113.974V117.569C360.337 117.569 363.554 114.35 363.554 110.379C363.554 106.409 360.337 103.189 356.369 103.189C355.061 103.189 353.833 103.539 352.777 104.152C350.629 105.394 349.184 107.718 349.184 110.379V128.354L352.414 131.587L352.777 131.949V110.379C352.777 108.394 354.385 106.784 356.369 106.784C358.353 106.784 359.961 108.394 359.961 110.379Z" fill="#1AFB9B"/>
<path d="M356.369 96C353.752 96 351.298 96.7008 349.185 97.9251C347.831 98.7072 346.619 99.7039 345.592 100.87C343.357 103.405 342 106.734 342 110.38V121.165L345.592 124.76V110.38C345.592 107.186 346.98 104.317 349.185 102.341C350.221 101.414 351.438 100.683 352.777 100.211C353.9 99.8112 355.11 99.595 356.369 99.595C362.32 99.595 367.146 104.424 367.146 110.38C367.146 116.336 362.32 121.165 356.369 121.165V124.76C364.306 124.76 370.738 118.321 370.738 110.38C370.738 102.439 364.306 96 356.369 96Z" fill="#1AFB9B"/>
</g>
<circle cx="36" cy="36" r="35.5" transform="matrix(-1 0 0 1 200 78)" fill="#0E0F0C" stroke="url(#paint2_linear_102_2)"/>
<path d="M148.004 118.994C148.001 119 148 119.006 148 119.012C148 119.018 148.001 119.024 148.004 119.029C148.204 119.212 150.361 121.138 151.651 120.586C153.011 120.013 152.196 118.73 158.707 118.017C158.792 118.017 165.293 118.555 165.623 113.8C165.622 113.793 165.624 113.786 165.627 113.78C165.631 113.773 165.636 113.768 165.643 113.765C165.65 113.762 165.657 113.761 165.664 113.762C165.671 113.764 165.678 113.767 165.683 113.772C166.136 114.124 169.067 116.488 166.305 118.867C163.708 121.116 160.271 124.233 159.899 130.791C159.885 131.007 159.952 131.221 160.086 131.392C160.22 131.562 160.412 131.677 160.626 131.715C164.036 132.287 167.534 131.995 170.802 130.865C174.069 129.734 177.001 127.802 179.328 125.245C179.502 125.049 179.61 124.804 179.637 124.543C180.048 121.282 179.598 116.871 176.625 111.576C176.625 111.576 175.571 110.17 179.679 108.041C179.686 108.038 179.692 108.033 179.696 108.026C179.7 108.02 179.702 108.013 179.702 108.006C179.702 107.998 179.7 107.991 179.696 107.985C179.692 107.978 179.686 107.973 179.679 107.97C179.145 107.686 175.617 105.619 177.666 102.221C177.67 102.215 177.672 102.208 177.672 102.201C177.672 102.194 177.67 102.187 177.667 102.181C177.663 102.174 177.658 102.169 177.651 102.166C177.645 102.163 177.638 102.161 177.631 102.162C176.998 102.225 172.711 102.467 173.61 97.5934C173.613 97.5849 173.612 97.5759 173.609 97.5678C173.605 97.5598 173.599 97.5532 173.591 97.5491C173.583 97.545 173.574 97.5437 173.566 97.5453C173.557 97.547 173.549 97.5516 173.544 97.5583C172.953 98.247 169.724 101.526 166.793 96.0226C166.789 96.0145 166.783 96.0079 166.775 96.0039C166.767 96 166.758 95.999 166.749 96.0011C166.74 96.0031 166.733 96.0082 166.727 96.0153C166.722 96.0224 166.719 96.0312 166.719 96.0402C166.681 96.8273 163.314 100.257 160.482 100.742C160.482 100.742 158.584 100.886 157.636 104.878C157.636 105.033 157.397 110.381 150.316 116.148C149.729 116.4 149.212 116.791 148.81 117.286C148.407 117.782 148.13 118.368 148.004 118.994ZM160.464 106.259C160.798 104.889 161.74 102.861 164.281 104.853C164.346 104.908 164.399 104.975 164.435 105.052C164.471 105.129 164.49 105.213 164.49 105.298C164.49 105.383 164.471 105.467 164.435 105.544C164.399 105.621 164.346 105.688 164.281 105.742C164.239 105.776 164.191 105.8 164.139 105.813C164.088 105.826 164.034 105.829 163.982 105.82C163.484 105.712 162.965 105.751 162.488 105.931C162.011 106.111 161.596 106.425 161.294 106.835C161.262 106.879 161.22 106.915 161.173 106.941C161.126 106.967 161.073 106.982 161.02 106.986C160.931 106.986 160.844 106.966 160.765 106.927C160.685 106.887 160.616 106.83 160.562 106.76C160.509 106.689 160.472 106.608 160.455 106.521C160.438 106.434 160.441 106.344 160.464 106.259Z" fill="#20F0A7"/>
<circle cx="432" cy="114" r="27.5" fill="#0E0F0C" stroke="url(#paint3_linear_102_2)"/>
<g clip-path="url(#clip1_102_2)">
<path fill-rule="evenodd" clip-rule="evenodd" d="M424.796 100C421.044 100 418 103.029 418 106.765H445.183V100H424.796ZM438.387 110.147H418.002C418.002 113.883 421.044 116.911 424.796 116.911H445.183C445.183 113.175 442.141 110.147 438.387 110.147ZM424.796 127.058H431.592V120.293H418.001C418.001 124.03 421.044 127.058 424.796 127.058Z" fill="#1AFB9B"/>
</g>
<circle cx="28" cy="28" r="27.5" transform="matrix(-1 0 0 1 116 86)" fill="#0E0F0C" stroke="url(#paint4_linear_102_2)"/>
<path d="M84.056 105.544H92.3228L93.9194 102.768L92.3228 100H84.056L82.4608 102.768L84.056 105.544Z" fill="#20F0A7"/>
<path d="M92.324 122.454H84.0572L82.4569 125.232L84.0521 128H92.319L93.9155 125.232L92.324 122.454Z" fill="#20F0A7"/>
<path d="M98.2426 103.417H95.0496L93.4543 106.194L97.5808 113.345H100.786L102.383 110.577L98.2426 103.417Z" fill="#20F0A7"/>
<path d="M81.3321 124.583L82.9286 121.805L78.7883 114.655H75.5965L74 117.423L78.1403 124.586L81.3321 124.583Z" fill="#20F0A7"/>
<path d="M78.1403 103.417L74 110.581L75.5965 113.348H78.7883L82.9286 106.198L81.3321 103.421L78.1403 103.417Z" fill="#20F0A7"/>
<path d="M98.2426 124.583L102.383 117.419L100.786 114.652H97.5808L93.4543 121.801L95.0496 124.579L98.2426 124.583Z" fill="#20F0A7"/>
<circle cx="496" cy="114" r="23.5" fill="#0E0F0C" stroke="url(#paint5_linear_102_2)"/>
<path d="M501.034 106.057C498.09 106.578 496.004 108.56 493.914 110.544C493.248 111.175 492.582 111.807 491.889 112.392C491.607 112.263 491.218 112.209 490.9 112.164C490.752 112.144 490.62 112.125 490.521 112.103C488.982 111.976 487.229 112.37 486.147 113.535C484.427 115.468 484.464 118.454 487.481 118.877C488.188 119.004 488.913 118.979 489.61 118.805C489.633 118.899 489.665 118.989 489.706 119.076C489.73 119.132 489.753 119.187 489.772 119.243C489.888 119.537 489.988 119.836 490.073 120.141C490.204 120.582 490.335 121.024 490.559 121.423C490.591 121.466 490.632 121.502 490.68 121.528C490.727 121.554 490.78 121.569 490.833 121.573C490.867 121.61 490.907 121.64 490.952 121.661C490.997 121.681 491.046 121.693 491.096 121.694C493.378 120.698 495.775 119.988 498.231 119.58C499.608 119.319 500.987 119.191 502.374 119.062C503.163 118.989 503.955 118.915 504.752 118.817C505.157 118.826 505.307 118.469 505.209 118.21C505.253 118.127 505.267 118.032 505.248 117.94C505.178 117.648 505.091 117.361 505.006 117.075L504.963 116.93C504.941 116.854 504.919 116.778 504.896 116.702C504.8 116.375 504.704 116.048 504.629 115.714C504.981 115.521 505.346 115.077 505.595 114.774C505.662 114.692 505.721 114.621 505.769 114.567C506.227 113.975 506.559 113.295 506.745 112.57C507.879 108.55 505.099 105.543 501.034 106.057Z" fill="#1AFB9B"/>
<path d="M495.204 117.411C494.334 117.6 493.483 117.863 492.658 118.198L492.552 118.24C492.176 118.386 491.624 118.601 491.887 119.073C492.135 119.397 492.469 119.221 492.794 119.05C492.947 118.97 493.098 118.89 493.237 118.864C493.619 118.713 494.009 118.582 494.405 118.473C494.656 118.406 494.91 118.344 495.163 118.282L495.454 118.211C495.975 118.046 495.73 117.251 495.204 117.411Z" fill="#0E0F0C"/>
<circle cx="24" cy="24" r="23.5" transform="matrix(-1 0 0 1 48 90)" fill="#0E0F0C" stroke="url(#paint6_linear_102_2)"/>
<path fill-rule="evenodd" clip-rule="evenodd" d="M23.5751 117.266L23.2882 117.136V120.809C22.0382 118.515 19.4932 117.545 17.6171 117.545C17.6171 122.289 21.4335 123.972 24.0447 123.972C26.6559 123.972 30.4722 122.289 30.4722 117.545C28.596 117.545 26.0504 118.516 24.8005 120.81V117.138L24.5767 117.248C24.2622 117.403 23.8948 117.41 23.5751 117.266ZM24.0449 123.911L24.0445 123.911C24.0446 123.926 24.0446 123.94 24.0447 123.955C24.0447 123.94 24.0448 123.925 24.0449 123.911Z" fill="#20F0A7"/>
<path d="M24.8652 104.988C28.0685 109.289 26.8847 114.043 24.8495 116.926C24.4377 117.509 23.6482 117.509 23.2278 116.933C21.1657 114.106 19.7785 109.502 23.2152 104.983C23.6464 104.416 24.4395 104.416 24.8652 104.988Z" fill="#20F0A7"/>
<path d="M19.5681 106.081C24.3164 108.093 25.4735 112.862 25.0318 116.453C24.9452 117.158 24.2472 117.561 23.596 117.277C20.5065 115.929 17.1986 112.682 18.1028 106.911C18.2126 106.21 18.9142 105.804 19.5681 106.081Z" fill="#20F0A7"/>
<path d="M29.9978 106.924C30.8013 112.381 27.5986 115.867 24.5067 117.279C23.86 117.574 23.1617 117.171 23.065 116.468C22.5754 112.911 23.4858 108.16 28.5372 106.087C29.1939 105.818 29.8945 106.222 29.9978 106.924Z" fill="#20F0A7"/>
<defs>
<linearGradient id="paint0_linear_102_2" x1="220.102" y1="164.29" x2="308.812" y2="74.8454" gradientUnits="userSpaceOnUse">
<stop offset="0.08" stop-color="#9945FF"/>
<stop offset="0.3" stop-color="#8752F3"/>
<stop offset="0.5" stop-color="#5497D5"/>
<stop offset="0.6" stop-color="#43B4CA"/>
<stop offset="0.72" stop-color="#28E0B9"/>
<stop offset="0.97" stop-color="#19FB9B"/>
</linearGradient>
<linearGradient id="paint1_linear_102_2" x1="356" y1="78" x2="356" y2="150" gradientUnits="userSpaceOnUse">
<stop stop-color="white" stop-opacity="0.15"/>
<stop offset="1" stop-color="white" stop-opacity="0"/>
</linearGradient>
<linearGradient id="paint2_linear_102_2" x1="36" y1="0" x2="36" y2="72" gradientUnits="userSpaceOnUse">
<stop stop-color="white" stop-opacity="0.15"/>
<stop offset="1" stop-color="white" stop-opacity="0"/>
</linearGradient>
<linearGradient id="paint3_linear_102_2" x1="432" y1="86" x2="432" y2="142" gradientUnits="userSpaceOnUse">
<stop stop-color="white" stop-opacity="0.15"/>
<stop offset="1" stop-color="white" stop-opacity="0"/>
</linearGradient>
<linearGradient id="paint4_linear_102_2" x1="28" y1="0" x2="28" y2="56" gradientUnits="userSpaceOnUse">
<stop stop-color="white" stop-opacity="0.15"/>
<stop offset="1" stop-color="white" stop-opacity="0"/>
</linearGradient>
<linearGradient id="paint5_linear_102_2" x1="496" y1="90" x2="496" y2="138" gradientUnits="userSpaceOnUse">
<stop stop-color="white" stop-opacity="0.15"/>
<stop offset="1" stop-color="white" stop-opacity="0"/>
</linearGradient>
<linearGradient id="paint6_linear_102_2" x1="24" y1="0" x2="24" y2="48" gradientUnits="userSpaceOnUse">
<stop stop-color="white" stop-opacity="0.15"/>
<stop offset="1" stop-color="white" stop-opacity="0"/>
</linearGradient>
<clipPath id="clip0_102_2">
<rect width="28.7382" height="36" fill="white" transform="translate(342 96)"/>
</clipPath>
<clipPath id="clip1_102_2">
<rect width="28" height="27.1515" fill="white" transform="translate(418 100)"/>
</clipPath>
</defs>
</svg>
