<svg width="520" height="96" viewBox="0 0 520 96" fill="none" xmlns="http://www.w3.org/2000/svg">
<circle cx="260" cy="48" r="48" fill="url(#paint0_linear_8_3043)"/>
<path d="M243.799 57.4996C244.094 57.2087 244.491 57.0458 244.906 57.0463H283.216C283.371 57.0442 283.522 57.0884 283.651 57.1732C283.78 57.258 283.881 57.3796 283.941 57.5222C284 57.6648 284.015 57.8219 283.985 57.9733C283.954 58.1247 283.878 58.2635 283.768 58.3716L276.2 65.8786C275.906 66.1704 275.508 66.3343 275.093 66.3346H236.783C236.628 66.3359 236.477 66.2911 236.348 66.2059C236.219 66.1207 236.119 65.999 236.059 65.8564C236 65.7138 235.985 65.5568 236.015 65.4053C236.046 65.2539 236.121 65.1151 236.231 65.0065L243.799 57.4996ZM243.799 29.4533C244.094 29.1625 244.491 28.9996 244.906 29H283.216C283.912 29 284.262 29.8374 283.768 30.328L276.2 37.835C275.905 38.1259 275.507 38.2888 275.093 38.2883H236.783C236.629 38.2891 236.478 38.2441 236.35 38.159C236.222 38.074 236.122 37.9527 236.062 37.8107C236.003 37.6686 235.988 37.5122 236.018 37.3612C236.048 37.2103 236.122 37.0716 236.231 36.9629L243.799 29.4533ZM276.2 43.3871C275.905 43.0963 275.507 42.9334 275.093 42.9338H236.783C236.628 42.9325 236.477 42.9773 236.348 43.0625C236.219 43.1476 236.119 43.2693 236.059 43.4119C236 43.5546 235.985 43.7116 236.015 43.863C236.046 44.0144 236.121 44.1533 236.231 44.2618L243.799 51.7688C244.092 52.0594 244.492 52.2221 244.906 52.2221H283.216C283.371 52.2234 283.522 52.1786 283.651 52.0934C283.78 52.0083 283.88 51.8866 283.939 51.744C283.999 51.6013 284.014 51.4443 283.984 51.2929C283.953 51.1415 283.878 51.0026 283.768 50.8941L276.2 43.3871Z" fill="#0E0F0C"/>
<circle cx="356" cy="48" r="35.5" fill="#0E0F0C" stroke="url(#paint1_linear_8_3043)"/>
<path d="M343.849 55.3747C344.07 55.1565 344.369 55.0344 344.679 55.0347H373.412C373.528 55.0331 373.642 55.0663 373.738 55.1299C373.835 55.1935 373.911 55.2847 373.955 55.3917C374 55.4986 374.011 55.6165 373.988 55.73C373.965 55.8435 373.909 55.9476 373.826 56.0287L368.15 61.6589C367.929 61.8778 367.631 62.0007 367.32 62.0009H338.587C338.471 62.0019 338.358 61.9683 338.261 61.9044C338.164 61.8406 338.089 61.7493 338.045 61.6423C338 61.5354 337.989 61.4176 338.011 61.304C338.034 61.1905 338.091 61.0863 338.173 61.0049L343.849 55.3747ZM343.849 34.34C344.07 34.1218 344.369 33.9997 344.679 34H373.412C373.934 34 374.196 34.628 373.826 34.996L368.15 40.6262C367.929 40.8444 367.631 40.9666 367.32 40.9662H338.587C338.472 40.9668 338.359 40.9331 338.262 40.8693C338.166 40.8055 338.091 40.7145 338.047 40.608C338.002 40.5014 337.991 40.3841 338.013 40.2709C338.036 40.1577 338.091 40.0537 338.173 39.9722L343.849 34.34ZM368.15 44.7904C367.929 44.5722 367.631 44.45 367.32 44.4503H338.587C338.471 44.4494 338.358 44.483 338.261 44.5468C338.164 44.6107 338.089 44.702 338.045 44.809C338 44.9159 337.989 45.0337 338.011 45.1473C338.034 45.2608 338.091 45.365 338.173 45.4464L343.849 51.0766C344.069 51.2946 344.369 51.4166 344.679 51.4166H373.412C373.528 51.4176 373.641 51.384 373.738 51.3201C373.835 51.2562 373.91 51.1649 373.955 51.058C373.999 50.951 374.011 50.8332 373.988 50.7197C373.965 50.6061 373.909 50.502 373.826 50.4205L368.15 44.7904Z" fill="#1AFB9B"/>
<circle cx="36" cy="36" r="35.5" transform="matrix(-1 0 0 1 200 12)" fill="#0E0F0C" stroke="url(#paint2_linear_8_3043)"/>
<path d="M153.199 54.9997C153.396 54.8058 153.661 54.6972 153.937 54.6975H179.477C179.58 54.6961 179.681 54.7256 179.768 54.7821C179.854 54.8387 179.921 54.9197 179.96 55.0148C180 55.1099 180.01 55.2146 179.99 55.3156C179.969 55.4165 179.919 55.509 179.845 55.5811L174.8 60.5857C174.604 60.7803 174.339 60.8895 174.062 60.8897H148.522C148.419 60.8906 148.318 60.8607 148.232 60.8039C148.146 60.7472 148.079 60.666 148.04 60.571C148 60.4759 147.99 60.3712 148.01 60.2702C148.031 60.1693 148.081 60.0767 148.154 60.0044L153.199 54.9997ZM153.199 36.3022C153.396 36.1083 153.661 35.9997 153.937 36H179.477C179.941 36 180.174 36.5582 179.845 36.8854L174.8 41.89C174.603 42.0839 174.338 42.1925 174.062 42.1922H148.522C148.419 42.1927 148.319 42.1627 148.233 42.106C148.148 42.0493 148.081 41.9685 148.042 41.8738C148.002 41.7791 147.992 41.6748 148.012 41.5741C148.032 41.4735 148.081 41.3811 148.154 41.3086L153.199 36.3022ZM174.8 45.5914C174.603 45.3975 174.338 45.2889 174.062 45.2892H148.522C148.419 45.2883 148.318 45.3182 148.232 45.375C148.146 45.4318 148.079 45.5129 148.04 45.608C148 45.703 147.99 45.8077 148.01 45.9087C148.031 46.0096 148.081 46.1022 148.154 46.1746L153.199 51.1792C153.395 51.373 153.661 51.4814 153.937 51.4814H179.477C179.58 51.4823 179.681 51.4524 179.767 51.3956C179.853 51.3388 179.92 51.2577 179.96 51.1626C179.999 51.0676 180.009 50.9629 179.989 50.8619C179.969 50.761 179.919 50.6684 179.845 50.596L174.8 45.5914Z" fill="#1AFB9B"/>
<circle cx="432" cy="48" r="27.5" fill="#0E0F0C" stroke="url(#paint3_linear_8_3043)"/>
<path d="M422.549 53.6248C422.721 53.4551 422.953 53.3601 423.195 53.3603H445.543C445.633 53.3591 445.721 53.3849 445.797 53.4344C445.872 53.4839 445.931 53.5548 445.965 53.638C446 53.7211 446.009 53.8128 445.991 53.9011C445.973 53.9894 445.929 54.0704 445.865 54.1335L441.45 58.5125C441.278 58.6828 441.046 58.7783 440.804 58.7785H418.457C418.366 58.7793 418.278 58.7531 418.203 58.7035C418.128 58.6538 418.069 58.5828 418.035 58.4996C418 58.4164 417.991 58.3248 418.009 58.2365C418.027 58.1481 418.07 58.0671 418.135 58.0038L422.549 53.6248ZM422.549 37.2645C422.721 37.0948 422.953 36.9997 423.195 37H445.543C445.949 37 446.153 37.4885 445.865 37.7747L441.45 42.1537C441.278 42.3234 441.046 42.4184 440.804 42.4182H418.457C418.367 42.4186 418.279 42.3924 418.204 42.3428C418.129 42.2932 418.071 42.2224 418.036 42.1396C418.002 42.0567 417.993 41.9654 418.01 41.8774C418.028 41.7893 418.071 41.7084 418.135 41.645L422.549 37.2645ZM441.45 45.3925C441.278 45.2228 441.046 45.1278 440.804 45.128H418.457C418.366 45.1273 418.278 45.1534 418.203 45.2031C418.128 45.2528 418.069 45.3238 418.035 45.407C418 45.4902 417.991 45.5818 418.009 45.6701C418.027 45.7584 418.07 45.8394 418.135 45.9027L422.549 50.2818C422.72 50.4513 422.954 50.5462 423.195 50.5462H445.543C445.633 50.547 445.721 50.5209 445.796 50.4712C445.871 50.4215 445.93 50.3505 445.965 50.2673C445.999 50.1841 446.008 50.0925 445.99 50.0042C445.973 49.9159 445.929 49.8349 445.865 49.7715L441.45 45.3925Z" fill="#1AFB9B"/>
<circle cx="28" cy="28" r="27.5" transform="matrix(-1 0 0 1 116 20)" fill="#0E0F0C" stroke="url(#paint4_linear_8_3043)"/>
<path d="M78.5493 53.6248C78.7213 53.4551 78.9533 53.3601 79.1949 53.3603H101.543C101.633 53.3591 101.721 53.3849 101.797 53.4344C101.872 53.4839 101.931 53.5548 101.965 53.638C102 53.7211 102.009 53.8128 101.991 53.9011C101.973 53.9894 101.929 54.0704 101.865 54.1335L97.45 58.5125C97.2782 58.6827 97.0462 58.7783 96.8044 58.7785H74.4565C74.3665 58.7793 74.2782 58.7531 74.203 58.7034C74.1279 58.6538 74.0693 58.5828 74.0347 58.4996C74.0001 58.4164 73.9911 58.3248 74.0089 58.2365C74.0267 58.1481 74.0704 58.0671 74.1345 58.0038L78.5493 53.6248ZM78.5493 37.2645C78.7213 37.0948 78.9533 36.9997 79.1949 37H101.543C101.949 37 102.153 37.4885 101.865 37.7747L97.45 42.1537C97.278 42.3234 97.046 42.4184 96.8044 42.4182H74.4565C74.3668 42.4186 74.2789 42.3924 74.2041 42.3428C74.1293 42.2932 74.0709 42.2224 74.0364 42.1396C74.0019 42.0567 73.9928 41.9654 74.0102 41.8774C74.0277 41.7893 74.071 41.7084 74.1345 41.645L78.5493 37.2645ZM97.45 45.3925C97.278 45.2228 97.046 45.1278 96.8044 45.128H74.4565C74.3665 45.1273 74.2782 45.1534 74.203 45.2031C74.1279 45.2528 74.0693 45.3238 74.0347 45.407C74.0001 45.4902 73.9911 45.5818 74.0089 45.6701C74.0267 45.7584 74.0704 45.8394 74.1345 45.9027L78.5493 50.2818C78.7205 50.4513 78.9538 50.5462 79.1949 50.5462H101.543C101.633 50.547 101.721 50.5209 101.796 50.4712C101.871 50.4215 101.93 50.3505 101.965 50.2673C101.999 50.1841 102.008 50.0925 101.99 50.0042C101.973 49.9159 101.929 49.8349 101.865 49.7715L97.45 45.3925Z" fill="#1AFB9B"/>
<circle cx="496" cy="48" r="23.5" fill="#0E0F0C" stroke="url(#paint5_linear_8_3043)"/>
<path d="M489.25 51.8748C489.372 51.7536 489.538 51.6858 489.711 51.6859H505.673C505.738 51.6851 505.801 51.7035 505.855 51.7388C505.909 51.7742 505.95 51.8248 505.975 51.8843C506 51.9437 506.006 52.0091 505.994 52.0722C505.981 52.1353 505.949 52.1931 505.903 52.2382L502.75 55.3661C502.627 55.4877 502.462 55.556 502.289 55.5561H486.326C486.262 55.5566 486.199 55.538 486.145 55.5025C486.091 55.467 486.049 55.4163 486.025 55.3568C486 55.2974 485.994 55.232 486.006 55.1689C486.019 55.1058 486.05 55.0479 486.096 55.0027L489.25 51.8748ZM489.25 40.1889C489.372 40.0677 489.538 39.9998 489.711 40H505.673C505.963 40 506.109 40.3489 505.903 40.5534L502.75 43.6812C502.627 43.8024 502.461 43.8703 502.289 43.8701H486.326C486.262 43.8705 486.199 43.8517 486.146 43.8163C486.092 43.7808 486.051 43.7303 486.026 43.6711C486.001 43.6119 485.995 43.5467 486.007 43.4838C486.02 43.4209 486.051 43.3632 486.096 43.3179L489.25 40.1889ZM502.75 45.9946C502.627 45.8734 502.461 45.8056 502.289 45.8057H486.326C486.262 45.8052 486.199 45.8239 486.145 45.8594C486.091 45.8948 486.049 45.9455 486.025 46.005C486 46.0644 485.994 46.1298 486.006 46.1929C486.019 46.256 486.05 46.3139 486.096 46.3591L489.25 49.487C489.372 49.6081 489.538 49.6759 489.711 49.6759H505.673C505.738 49.6764 505.801 49.6578 505.854 49.6223C505.908 49.5868 505.95 49.5361 505.975 49.4767C505.999 49.4172 506.006 49.3518 505.993 49.2887C505.98 49.2256 505.949 49.1678 505.903 49.1225L502.75 45.9946Z" fill="#1AFB9B"/>
<circle cx="24" cy="24" r="23.5" transform="matrix(-1 0 0 1 48 24)" fill="#0E0F0C" stroke="url(#paint6_linear_8_3043)"/>
<path d="M14.5493 53.6248C14.7213 53.4551 14.9533 53.3601 15.1949 53.3603H37.5428C37.6329 53.3591 37.7213 53.3849 37.7966 53.4344C37.8719 53.4839 37.9307 53.5548 37.9653 53.638C38 53.7211 38.0089 53.8128 37.991 53.9011C37.9731 53.9894 37.9291 54.0704 37.8648 54.1335L33.45 58.5125C33.2782 58.6827 33.0462 58.7783 32.8044 58.7785H10.4565C10.3665 58.7793 10.2782 58.7531 10.203 58.7034C10.1279 58.6538 10.0693 58.5828 10.0347 58.4996C10.0001 58.4164 9.99112 58.3248 10.0089 58.2365C10.0267 58.1481 10.0704 58.0671 10.1345 58.0038L14.5493 53.6248ZM14.5493 37.2645C14.7213 37.0948 14.9533 36.9997 15.1949 37H37.5428C37.9488 37 38.1526 37.4885 37.8648 37.7747L33.45 42.1537C33.278 42.3234 33.046 42.4184 32.8044 42.4182H10.4565C10.3668 42.4186 10.2789 42.3924 10.2041 42.3428C10.1293 42.2932 10.0709 42.2224 10.0364 42.1396C10.0019 42.0567 9.99276 41.9654 10.0102 41.8774C10.0277 41.7893 10.071 41.7084 10.1345 41.645L14.5493 37.2645ZM33.45 45.3925C33.278 45.2228 33.046 45.1278 32.8044 45.128H10.4565C10.3665 45.1273 10.2782 45.1534 10.203 45.2031C10.1279 45.2528 10.0693 45.3238 10.0347 45.407C10.0001 45.4902 9.99112 45.5818 10.0089 45.6701C10.0267 45.7584 10.0704 45.8394 10.1345 45.9027L14.5493 50.2818C14.7205 50.4513 14.9538 50.5462 15.1949 50.5462H37.5428C37.6329 50.547 37.7211 50.5209 37.7963 50.4712C37.8714 50.4215 37.9301 50.3505 37.9646 50.2673C37.9992 50.1841 38.0082 50.0925 37.9904 50.0042C37.9726 49.9159 37.9289 49.8349 37.8648 49.7715L33.45 45.3925Z" fill="#1AFB9B"/>
<defs>
<linearGradient id="paint0_linear_8_3043" x1="220.102" y1="98.2901" x2="308.812" y2="8.84537" gradientUnits="userSpaceOnUse">
<stop offset="0.08" stop-color="#9945FF"/>
<stop offset="0.3" stop-color="#8752F3"/>
<stop offset="0.5" stop-color="#5497D5"/>
<stop offset="0.6" stop-color="#43B4CA"/>
<stop offset="0.72" stop-color="#28E0B9"/>
<stop offset="0.97" stop-color="#19FB9B"/>
</linearGradient>
<linearGradient id="paint1_linear_8_3043" x1="356" y1="12" x2="356" y2="84" gradientUnits="userSpaceOnUse">
<stop stop-color="white" stop-opacity="0.15"/>
<stop offset="1" stop-color="white" stop-opacity="0"/>
</linearGradient>
<linearGradient id="paint2_linear_8_3043" x1="36" y1="0" x2="36" y2="72" gradientUnits="userSpaceOnUse">
<stop stop-color="white" stop-opacity="0.15"/>
<stop offset="1" stop-color="white" stop-opacity="0"/>
</linearGradient>
<linearGradient id="paint3_linear_8_3043" x1="432" y1="20" x2="432" y2="76" gradientUnits="userSpaceOnUse">
<stop stop-color="white" stop-opacity="0.15"/>
<stop offset="1" stop-color="white" stop-opacity="0"/>
</linearGradient>
<linearGradient id="paint4_linear_8_3043" x1="28" y1="0" x2="28" y2="56" gradientUnits="userSpaceOnUse">
<stop stop-color="white" stop-opacity="0.15"/>
<stop offset="1" stop-color="white" stop-opacity="0"/>
</linearGradient>
<linearGradient id="paint5_linear_8_3043" x1="496" y1="24" x2="496" y2="72" gradientUnits="userSpaceOnUse">
<stop stop-color="white" stop-opacity="0.15"/>
<stop offset="1" stop-color="white" stop-opacity="0"/>
</linearGradient>
<linearGradient id="paint6_linear_8_3043" x1="24" y1="0" x2="24" y2="48" gradientUnits="userSpaceOnUse">
<stop stop-color="white" stop-opacity="0.15"/>
<stop offset="1" stop-color="white" stop-opacity="0"/>
</linearGradient>
</defs>
</svg>
