<svg width="189" height="28" viewBox="0 0 189 28" fill="none" xmlns="http://www.w3.org/2000/svg">
<g clip-path="url(#clip0_8_3272)">
<mask id="mask0_8_3272" style="mask-type:luminance" maskUnits="userSpaceOnUse" x="0" y="0" width="189" height="28">
<path d="M188.417 0H0V28H188.417V0Z" fill="white"/>
</mask>
<g mask="url(#mask0_8_3272)">
<path d="M31.6546 22.0762L26.4862 27.6179C26.3744 27.7383 26.2391 27.8344 26.0885 27.9001C25.938 27.9658 25.7755 27.9998 25.6112 28H1.11124C0.994386 27.9999 0.880088 27.9658 0.782339 27.9018C0.684592 27.8377 0.607639 27.7466 0.5609 27.6395C0.51416 27.5324 0.499664 27.414 0.519188 27.2988C0.538713 27.1836 0.591405 27.0765 0.67082 26.9908L5.83332 21.4492C5.94511 21.3288 6.08048 21.2327 6.23104 21.167C6.38156 21.1013 6.54405 21.0672 6.70832 21.0671H31.2083C31.3261 21.0647 31.4422 21.0971 31.5417 21.1605C31.6411 21.2238 31.7199 21.3152 31.7674 21.4231C31.8153 21.5309 31.8299 21.6505 31.8097 21.7668C31.7896 21.883 31.7356 21.9907 31.6546 22.0762ZM26.4862 10.9142C26.374 10.7943 26.2385 10.6987 26.0881 10.633C25.9377 10.5673 25.7754 10.533 25.6112 10.5321H1.11124C0.994386 10.5322 0.880088 10.5663 0.782339 10.6303C0.684592 10.6944 0.607639 10.7855 0.5609 10.8926C0.51416 10.9997 0.499664 11.1181 0.519188 11.2333C0.538713 11.3485 0.591405 11.4556 0.67082 11.5413L5.83332 17.0859C5.94552 17.2057 6.081 17.3013 6.23144 17.3671C6.38189 17.4327 6.54417 17.4671 6.70832 17.4679H31.2083C31.325 17.4673 31.4387 17.4327 31.5361 17.3685C31.6336 17.3043 31.71 17.2131 31.7564 17.1061C31.8027 16.9991 31.817 16.8809 31.7972 16.766C31.7776 16.651 31.7251 16.5443 31.6458 16.4588L26.4862 10.9142ZM1.11124 6.93291H25.6112C25.7755 6.93276 25.938 6.89873 26.0885 6.83298C26.2391 6.76727 26.3744 6.6712 26.4862 6.55083L31.6546 1.00917C31.7356 0.923574 31.7896 0.815888 31.8097 0.699662C31.8299 0.583435 31.8153 0.463861 31.7674 0.355985C31.7199 0.248109 31.6411 0.156753 31.5417 0.0934106C31.4422 0.0300681 31.3261 -0.00243001 31.2083 5.44707e-06H6.70832C6.54405 0.000178359 6.38156 0.0341941 6.23104 0.0999316C6.08048 0.165669 5.94511 0.261718 5.83332 0.382089L0.67082 5.92374C0.591405 6.00946 0.538713 6.1165 0.519188 6.23171C0.499664 6.34692 0.51416 6.46531 0.5609 6.57241C0.607639 6.67951 0.684592 6.77065 0.782339 6.83467C0.880088 6.89873 0.994386 6.93285 1.11124 6.93291Z" fill="url(#paint0_linear_8_3272)"/>
<path d="M61.5241 11.8418H48.4166V7.5251H64.9308V3.20844H48.3729C47.807 3.20537 47.2465 3.31376 46.7226 3.5274C46.1988 3.74108 45.7219 4.05582 45.32 4.45368C44.9178 4.85154 44.5978 5.32474 44.3785 5.84621C44.1592 6.36771 44.0445 6.9273 44.0416 7.49302V11.868C44.044 12.4342 44.1577 12.9945 44.3768 13.5166C44.5958 14.0388 44.9155 14.5126 45.3177 14.9111C45.7202 15.3096 46.197 15.6249 46.7212 15.8389C47.2453 16.0529 47.8068 16.1615 48.3729 16.1584H61.4979V20.4751H44.3537V24.7918H61.5241C62.09 24.7949 62.6505 24.6864 63.1744 24.4728C63.6982 24.2591 64.1751 23.9444 64.577 23.5465C64.9792 23.1487 65.2992 22.6755 65.5185 22.154C65.7378 21.6325 65.8525 21.0729 65.8554 20.5072V16.1322C65.853 15.566 65.7393 15.0058 65.5203 14.4836C65.3012 13.9614 64.9815 13.4876 64.5793 13.0891C64.1768 12.6906 63.7 12.3753 63.1758 12.1613C62.6517 11.9473 62.0903 11.8387 61.5241 11.8418Z" fill="white"/>
<path d="M86.9166 3.20833H73.7595C73.1928 3.20373 72.6308 3.31097 72.1055 3.52395C71.5805 3.73692 71.1025 4.0514 70.6991 4.44943C70.2954 4.84744 69.9746 5.32114 69.7547 5.8434C69.5345 6.36565 69.4195 6.92621 69.4166 7.49292V20.5071C69.4195 21.0738 69.5345 21.6343 69.7547 22.1566C69.9746 22.6789 70.2954 23.1526 70.6991 23.5506C71.1025 23.9486 71.5805 24.2631 72.1055 24.4761C72.6308 24.689 73.1928 24.7963 73.7595 24.7917H86.9166C87.4825 24.7947 88.043 24.6863 88.5669 24.4727C89.0907 24.259 89.5676 23.9443 89.9695 23.5464C90.3717 23.1486 90.6917 22.6754 90.911 22.1539C91.1303 21.6324 91.245 21.0728 91.2479 20.5071V7.49292C91.245 6.9272 91.1303 6.36761 90.911 5.84611C90.6917 5.32464 90.3717 4.85144 89.9695 4.45357C89.5676 4.05571 89.0907 3.74098 88.5669 3.5273C88.043 3.31365 87.4825 3.20527 86.9166 3.20833ZM86.8845 20.475H73.7916V7.525H86.8787L86.8845 20.475Z" fill="white"/>
<path d="M133 3.20839H120.167C119.601 3.20533 119.04 3.31371 118.516 3.52735C117.993 3.74103 117.516 4.05577 117.114 4.45363C116.712 4.85149 116.392 5.32469 116.172 5.84616C115.953 6.36766 115.838 6.92725 115.835 7.49297V24.7917H120.21V17.7013H132.985V24.7917H137.36V7.49297C137.357 6.92477 137.242 6.36279 137.021 5.83937C136.8 5.31597 136.477 4.84149 136.072 4.44322C135.667 4.04498 135.187 3.73085 134.659 3.51893C134.132 3.307 133.568 3.20148 133 3.20839ZM132.968 13.3846H120.193V7.52505H132.968V13.3846Z" fill="white"/>
<path d="M184.085 3.20844H171.252C170.686 3.20537 170.126 3.31376 169.602 3.5274C169.078 3.74108 168.601 4.05582 168.199 4.45368C167.797 4.85154 167.477 5.32474 167.258 5.84621C167.038 6.36771 166.924 6.9273 166.921 7.49302V24.7918H171.296V17.7014H184.042V24.7918H188.417V7.49302C188.414 6.9273 188.299 6.36771 188.08 5.84621C187.86 5.32474 187.54 4.85154 187.138 4.45368C186.736 4.05582 186.259 3.74108 185.736 3.5274C185.212 3.31376 184.651 3.20537 184.085 3.20844ZM184.042 13.3847H171.267V7.5251H184.042V13.3847Z" fill="white"/>
<path d="M158.667 20.4751H156.917L150.66 5.01674C150.446 4.48343 150.077 4.02636 149.601 3.70419C149.125 3.38198 148.564 3.20934 147.989 3.20841H144.107C143.729 3.20649 143.355 3.27891 143.006 3.4215C142.657 3.56413 142.339 3.77413 142.071 4.03954C141.803 4.30499 141.59 4.6206 141.443 4.96844C141.297 5.31626 141.221 5.68947 141.219 6.06674V24.7917H145.594V7.52508H147.344L153.598 22.9834C153.815 23.5157 154.187 23.9709 154.665 24.2909C155.143 24.611 155.706 24.7812 156.281 24.7801H160.163C160.54 24.782 160.914 24.7096 161.263 24.567C161.613 24.4244 161.93 24.2144 162.199 23.9489C162.467 23.6835 162.68 23.3679 162.826 23.0201C162.972 22.6722 163.048 22.299 163.05 21.9217V3.20841H158.667V20.4751Z" fill="white"/>
<path d="M99.4875 3.20837H95.1125V20.5071C95.1154 21.0741 95.2306 21.6349 95.4508 22.1573C95.671 22.6798 95.9922 23.1536 96.3958 23.5517C96.7995 23.9497 97.2781 24.2641 97.8034 24.4769C98.329 24.6897 98.8913 24.7967 99.4583 24.7917H112.583V20.475H99.4875V3.20837Z" fill="white"/>
</g>
</g>
<defs>
<linearGradient id="paint0_linear_8_3272" x1="3.1529" y1="28.6679" x2="28.8429" y2="-0.294571" gradientUnits="userSpaceOnUse">
<stop offset="0.08" stop-color="#9945FF"/>
<stop offset="0.3" stop-color="#8752F3"/>
<stop offset="0.5" stop-color="#5497D5"/>
<stop offset="0.6" stop-color="#43B4CA"/>
<stop offset="0.72" stop-color="#28E0B9"/>
<stop offset="0.97" stop-color="#19FB9B"/>
</linearGradient>
<clipPath id="clip0_8_3272">
<rect width="188.417" height="28" fill="white"/>
</clipPath>
</defs>
</svg>
